# xmcd
#
# Track frame offsets: 
#        150
#        50913
#        65941
#        90812
#        180885
#        236900
#        297500
#
# Disc length: 4691 seconds
#
# Revision: 0
# Processed by: cddbd v1.5.2PL0 Copyright (c) Steve Scherf et al.
# Submitted via: ExactAudioCopy v0.95b3
#
DISCID=64125107
DTITLE=Derek And The Dominos  - The Complete Jams - Disc 1 FLAC
DYEAR=1900
DGENRE=
TTITLE0=Out Of The Blue
TTITLE1=Plug Me In
TTITLE2=Thanks For The Pepperoni
TTITLE3=Jam I
TTITLE4=Jam Ii
TTITLE5=Jam Iii
TTITLE6=Jam Iv
EXTD=
EXTT0=
EXTT1=
EXTT2=
EXTT3=
EXTT4=
EXTT5=
EXTT6=
PLAYORDER=
